<?xml version="1.0" encoding="utf-8"?>
<!-- Generator: Adobe Illustrator 25.0.1, SVG Export Plug-In . SVG Version: 6.00 Build 0)  -->
<svg version="1.1" id="Layer_1" xmlns="http://www.w3.org/2000/svg" xmlns:xlink="http://www.w3.org/1999/xlink" x="0px" y="0px"
	 viewBox="0 0 595.28 841.89" style="enable-background:new 0 0 595.28 841.89;" xml:space="preserve">
<style type="text/css">
	.st0{clip-path:url(#SVGID_2_);fill:#AE1E55;}
	.st1{clip-path:url(#SVGID_2_);fill:#490144;}
</style>
<g>
	<defs>
		<rect id="SVGID_1_" width="595.28" height="841.89"/>
	</defs>
	<clipPath id="SVGID_2_">
		<use xlink:href="#SVGID_1_"  style="overflow:visible;"/>
	</clipPath>
	<path class="st0" d="M193.92,528.22L193.92,528.22c3.76,0,6.81-3.05,6.81-6.81c0-3.76-3.05-6.81-6.81-6.81
		c-3.76,0-6.81,3.05-6.81,6.81C187.11,525.17,190.16,528.22,193.92,528.22"/>
	<path class="st1" d="M104.35,533.11c-0.4-8.65-7.53-15.54-16.28-15.54c-8.88,0-16.1,7.1-16.29,15.94h-0.01v25.41h12.53v-25.33
		c0.14-1.96,1.77-3.5,3.77-3.5c1.99,0,3.63,1.54,3.77,3.5v8.12v0.45v8.15v8.6h12.53v-8.6v-8.15v-0.45v-8.61H104.35z"/>
	<path class="st1" d="M182.33,495.66L182.33,495.66l-110.56,0v13.26h110.56v-0.01c2.16,0.06,3.89,1.83,3.89,4h13.25
		C199.46,503.42,191.8,495.73,182.33,495.66"/>
	<path class="st1" d="M48.97,549.45c-2.21,0-4-1.79-4-4H31.72c0,9.53,7.72,17.25,17.25,17.25s17.25-7.72,17.25-17.25H52.97
		C52.97,547.65,51.18,549.45,48.97,549.45"/>
	<polygon class="st1" points="52.96,495.66 52.96,518.97 52.96,519.02 52.96,531.5 52.96,532.23 52.96,546.29 66.22,546.29 
		66.22,532.23 66.22,531.5 66.22,519.02 66.22,518.97 66.22,495.66 	"/>
	<path class="st1" d="M140.29,542.18v-0.03v-5.92h0.02c0-9.53-7.72-17.25-17.25-17.25v13.24c2.21,0,4,1.79,4,4h0.01v5.92v0.03v8.94
		h0.02v8.73h13.21v-8.97h-0.02V542.18z"/>
	<path class="st1" d="M88.25,554.92v-13.24c-9.14,0-16.55,7.72-16.55,17.25h12.71C84.41,556.71,86.13,554.92,88.25,554.92"/>
	<polygon class="st1" points="168.97,520.03 168.91,520.03 157.38,520.03 155.71,520.03 142.42,520.03 142.42,533.29 155.71,533.29 
		157.38,533.29 168.91,533.29 168.97,533.29 182.17,533.29 182.17,520.03 	"/>
	<polygon class="st1" points="168.84,547.04 167.25,547.04 156.31,547.04 155.58,547.04 142.38,547.04 142.38,560.3 155.58,560.3 
		156.31,560.3 167.25,560.3 168.84,560.3 182.21,560.3 182.21,547.04 	"/>
	<polygon class="st1" points="123.09,528.35 123.09,518.97 109.89,518.97 109.89,528.35 109.86,528.35 109.86,539.49 109.86,540.75 
		109.86,549.62 109.86,549.72 109.86,559.85 123.12,559.85 123.12,549.72 123.12,549.62 123.12,540.75 123.12,539.49 123.12,528.35 
			"/>
	<polygon class="st1" points="182.17,520.03 142.38,547.05 142.38,560.3 182.17,533.29 	"/>
	<path class="st0" d="M199.3,528.33v18c0,7.36-5.97,13.33-13.33,13.33v-18C185.97,534.3,191.94,528.33,199.3,528.33"/>
</g>
</svg>
