<svg id="Layer_1" data-name="Layer 1" xmlns="http://www.w3.org/2000/svg" xmlns:xlink="http://www.w3.org/1999/xlink" viewBox="0 0 169.01 67.03"><defs><style>.cls-1{fill:none;}.cls-2{clip-path:url(#clip-path);}.cls-3{fill:#ae1e55;}.cls-4{fill:#490144;}</style><clipPath id="clip-path" transform="translate(-517.17 -171.01)"><rect class="cls-1" x="485.45" y="-324.65" width="595.28" height="841.89"/></clipPath></defs><g class="cls-2"><path class="cls-3" d="M679.37,203.57h0a6.81,6.81,0,1,0-6.8-6.81,6.81,6.81,0,0,0,6.8,6.81" transform="translate(-517.17 -171.01)"/><path class="cls-4" d="M589.8,208.46a16.29,16.29,0,0,0-32.56.4h0v25.41h12.53V208.94a3.78,3.78,0,0,1,7.54,0v25.33h12.52V208.46Z" transform="translate(-517.17 -171.01)"/><path class="cls-4" d="M667.78,171H557.23v13.26H667.78a4,4,0,0,1,3.89,4h13.25A17.25,17.25,0,0,0,667.78,171" transform="translate(-517.17 -171.01)"/><path class="cls-4" d="M534.42,224.79a4,4,0,0,1-4-4H517.17a17.25,17.25,0,0,0,34.5,0H538.42a4,4,0,0,1-4,4" transform="translate(-517.17 -171.01)"/><polygon class="cls-4" points="21.24 0 21.24 23.31 21.24 23.36 21.24 35.84 21.24 36.57 21.24 50.63 34.5 50.63 34.5 36.57 34.5 35.84 34.5 23.36 34.5 23.31 34.5 0 21.24 0"/><path class="cls-4" d="M625.74,217.52v-6h0a17.25,17.25,0,0,0-17.25-17.25v13.24a4,4,0,0,1,4,4h0v14.89h0v8.73h13.22v-9h0Z" transform="translate(-517.17 -171.01)"/><path class="cls-4" d="M573.71,230.27V217c-9.14,0-16.55,7.73-16.55,17.25h12.7a3.92,3.92,0,0,1,3.85-4" transform="translate(-517.17 -171.01)"/><polygon class="cls-4" points="137.25 24.37 137.2 24.37 125.66 24.37 123.99 24.37 110.7 24.37 110.7 37.63 123.99 37.63 125.66 37.63 137.2 37.63 137.25 37.63 150.46 37.63 150.46 24.37 137.25 24.37"/><polygon class="cls-4" points="137.13 51.38 135.53 51.38 124.59 51.38 123.86 51.38 110.66 51.38 110.66 64.64 123.86 64.64 124.59 64.64 135.53 64.64 137.13 64.64 150.5 64.64 150.5 51.38 137.13 51.38"/><polygon class="cls-4" points="91.37 32.69 91.37 23.31 78.17 23.31 78.17 32.69 78.14 32.69 78.14 43.83 78.14 45.09 78.14 53.95 78.14 54.06 78.14 64.19 91.4 64.19 91.4 54.06 91.4 53.95 91.4 45.09 91.4 43.83 91.4 32.69 91.37 32.69"/><polygon class="cls-4" points="150.46 24.37 110.66 51.38 110.66 64.64 150.46 37.63 150.46 24.37"/><path class="cls-3" d="M684.75,203.68v18A13.33,13.33,0,0,1,671.42,235V217a13.33,13.33,0,0,1,13.33-13.33" transform="translate(-517.17 -171.01)"/></g></svg>